<svg width="1347" height="357" viewBox="0 0 1347 357" fill="none" xmlns="http://www.w3.org/2000/svg">
<path d="M458.4 40H542.4V68.8H492.8V89.2H535.2V118H492.8V141.2H544.4V170H458.4V40ZM592.733 172.4C586.733 172.4 581.399 171 576.733 168.2C572.199 165.4 568.733 161.667 566.333 157C563.933 152.333 562.733 147.2 562.733 141.6C562.733 131.067 566.999 122.867 575.533 117C584.199 111.133 598.066 107.2 617.133 105.2C616.733 101.6 615.399 99 613.133 97.4C610.866 95.6667 607.533 94.8 603.133 94.8C599.666 94.8 595.933 95.4667 591.933 96.8C587.933 98.1333 583.266 100.267 577.933 103.2L565.933 80.8C580.599 72 595.266 67.6 609.933 67.6C637.666 67.6 651.533 83.2 651.533 114.4V170H623.533L621.133 160.4H620.333C611.399 168.4 602.199 172.4 592.733 172.4ZM604.733 146C607.266 146 609.399 145.467 611.133 144.4C612.999 143.2 614.999 141.467 617.133 139.2V125.6C602.733 127.733 595.533 132.133 595.533 138.8C595.533 141.067 596.333 142.867 597.933 144.2C599.533 145.4 601.799 146 604.733 146ZM704.759 172.4C698.359 172.4 691.559 171.133 684.359 168.6C677.292 165.933 671.159 162.533 665.959 158.4L681.159 137.2C690.226 143.867 698.359 147.2 705.559 147.2C709.159 147.2 711.692 146.733 713.159 145.8C714.759 144.733 715.559 143.2 715.559 141.2C715.559 139.2 714.492 137.6 712.359 136.4C710.226 135.2 706.559 133.6 701.359 131.6C700.692 131.333 699.959 131.067 699.159 130.8C698.359 130.4 697.426 130 696.359 129.6C679.559 122.933 671.159 113.067 671.159 100C671.159 90.2667 674.759 82.4667 681.959 76.6C689.292 70.6 698.892 67.6 710.759 67.6C718.226 67.6 724.892 68.8 730.759 71.2C736.626 73.6 742.226 76.8 747.559 80.8L732.359 101.2C724.626 95.6 717.826 92.8 711.959 92.8C706.092 92.8 703.159 94.6667 703.159 98.4C703.159 100.4 704.226 102 706.359 103.2C708.492 104.267 712.092 105.733 717.159 107.6C718.226 107.867 719.826 108.4 721.959 109.2C729.426 112 735.559 115.667 740.359 120.2C745.159 124.733 747.559 131.067 747.559 139.2C747.559 148.933 743.826 156.933 736.359 163.2C728.892 169.333 718.359 172.4 704.759 172.4ZM779.189 207.6C773.989 207.6 768.922 206.933 763.989 205.6L769.989 179.6C770.389 179.733 771.255 179.933 772.589 180.2C774.055 180.6 775.322 180.8 776.389 180.8C784.522 180.8 789.722 177.467 791.989 170.8L793.189 166.4L755.189 70H789.589L801.589 108.4C803.189 113.6 805.122 121 807.389 130.6C808.055 133.667 808.522 135.733 808.789 136.8H809.589C811.989 125.6 814.122 116.133 815.989 108.4L825.989 70H858.789L825.189 168.4C821.589 177.867 817.789 185.4 813.789 191C809.922 196.6 805.189 200.733 799.589 203.4C794.122 206.2 787.322 207.6 779.189 207.6ZM875.587 40H912.387L931.987 93.2C932.921 95.8667 934.187 100 935.787 105.6L938.787 116H939.587L942.587 105.6C944.187 100 945.454 95.8667 946.387 93.2L965.187 40H1001.99V170H970.787V131.6C970.787 126.667 971.187 120.333 971.987 112.6C972.787 104.733 973.654 97.4667 974.587 90.8L975.187 85.2H974.387L963.587 116.4L947.587 159.4H929.187L913.187 116.4L902.787 85.2H901.987L902.587 90.8C903.521 97.4667 904.387 104.733 905.187 112.6C905.987 120.333 906.387 126.667 906.387 131.6V170H875.587V40ZM1072.46 172.4C1063.79 172.4 1055.66 170.333 1048.06 166.2C1040.46 161.933 1034.33 155.867 1029.66 148C1025.13 140 1022.86 130.667 1022.86 120C1022.86 109.333 1025.13 100.067 1029.66 92.2C1034.33 84.2 1040.46 78.1333 1048.06 74C1055.66 69.7333 1063.79 67.6 1072.46 67.6C1081.13 67.6 1089.26 69.7333 1096.86 74C1104.46 78.1333 1110.53 84.2 1115.06 92.2C1119.73 100.067 1122.06 109.333 1122.06 120C1122.06 130.667 1119.73 140 1115.06 148C1110.53 155.867 1104.46 161.933 1096.86 166.2C1089.26 170.333 1081.13 172.4 1072.46 172.4ZM1072.46 144.8C1082.06 144.8 1086.86 136.533 1086.86 120C1086.86 103.467 1082.06 95.2 1072.46 95.2C1062.86 95.2 1058.06 103.467 1058.06 120C1058.06 136.533 1062.86 144.8 1072.46 144.8ZM1128.82 70H1163.22L1174.02 113.6L1181.22 144.8H1182.02L1189.22 113.6L1200.02 70H1232.82L1201.22 170H1161.62L1128.82 70ZM1331.26 116C1331.26 121.867 1330.79 126.667 1329.86 130.4H1272.26C1273.86 136.267 1276.79 140.4 1281.06 142.8C1285.46 145.2 1290.46 146.4 1296.06 146.4C1302.46 146.4 1309.26 144.4 1316.46 140.4L1327.66 160.8C1322.46 164.533 1316.52 167.4 1309.86 169.4C1303.32 171.4 1297.12 172.4 1291.26 172.4C1281.39 172.4 1272.52 170.333 1264.66 166.2C1256.92 162.067 1250.79 156.067 1246.26 148.2C1241.86 140.2 1239.66 130.8 1239.66 120C1239.66 109.6 1241.92 100.467 1246.46 92.6C1250.99 84.6 1256.92 78.4667 1264.26 74.2C1271.59 69.8 1279.39 67.6 1287.66 67.6C1301.79 67.6 1312.59 72.1333 1320.06 81.2C1327.52 90.2667 1331.26 101.867 1331.26 116ZM1302.06 108C1302.06 103.733 1300.99 100.267 1298.86 97.6C1296.72 94.9333 1293.26 93.6 1288.46 93.6C1284.72 93.6 1281.39 94.8 1278.46 97.2C1275.66 99.4667 1273.59 103.067 1272.26 108H1302.06Z" fill="#5C524B"/>
<path d="M463.16 302V249.84H476.04L484.44 273.04C484.973 274.587 485.48 276.187 485.96 277.84C486.44 279.44 486.946 281.04 487.48 282.64H487.8C488.333 281.04 488.813 279.44 489.24 277.84C489.72 276.187 490.226 274.587 490.76 273.04L499 249.84H511.8V302H501.08V282.88C501.08 281.6 501.133 280.187 501.24 278.64C501.346 277.093 501.48 275.547 501.64 274C501.8 272.4 501.96 270.853 502.12 269.36C502.28 267.813 502.44 266.4 502.6 265.12H502.28L498.04 277.52L490.6 297.44H484.12L476.68 277.52L472.52 265.12H472.2C472.36 266.4 472.52 267.813 472.68 269.36C472.84 270.853 473 272.4 473.16 274C473.32 275.547 473.453 277.093 473.56 278.64C473.666 280.187 473.72 281.6 473.72 282.88V302H463.16ZM562.897 302.96C559.377 302.96 556.151 302.347 553.217 301.12C550.337 299.84 547.857 298.027 545.777 295.68C543.697 293.333 542.071 290.48 540.897 287.12C539.777 283.76 539.217 279.947 539.217 275.68C539.217 271.413 539.777 267.627 540.897 264.32C542.071 260.96 543.697 258.16 545.777 255.92C547.857 253.627 550.337 251.893 553.217 250.72C556.151 249.493 559.377 248.88 562.897 248.88C566.417 248.88 569.617 249.493 572.497 250.72C575.431 251.893 577.937 253.627 580.017 255.92C582.097 258.213 583.697 261.04 584.817 264.4C585.991 267.707 586.577 271.467 586.577 275.68C586.577 279.947 585.991 283.76 584.817 287.12C583.697 290.48 582.097 293.333 580.017 295.68C577.937 298.027 575.431 299.84 572.497 301.12C569.617 302.347 566.417 302.96 562.897 302.96ZM562.897 292.8C566.471 292.8 569.297 291.28 571.377 288.24C573.457 285.147 574.497 280.96 574.497 275.68C574.497 270.453 573.457 266.373 571.377 263.44C569.297 260.507 566.471 259.04 562.897 259.04C559.324 259.04 556.497 260.507 554.417 263.44C552.337 266.373 551.297 270.453 551.297 275.68C551.297 280.96 552.337 285.147 554.417 288.24C556.497 291.28 559.324 292.8 562.897 292.8ZM622.244 302L606.484 249.84H618.964L625.204 274.16C626.004 277.04 626.697 279.84 627.284 282.56C627.924 285.227 628.644 288 629.444 290.88H629.764C630.51 288 631.204 285.227 631.844 282.56C632.484 279.84 633.177 277.04 633.924 274.16L640.084 249.84H652.084L636.404 302H622.244ZM675.257 302V249.84H687.017V302H675.257ZM716.919 302V249.84H728.999L742.599 275.76L747.719 287.28H748.039C747.772 284.507 747.452 281.413 747.079 278C746.759 274.587 746.599 271.333 746.599 268.24V249.84H757.799V302H745.719L732.119 276L726.999 264.64H726.679C726.946 267.52 727.239 270.613 727.559 273.92C727.932 277.227 728.119 280.427 728.119 283.52V302H716.919ZM810.762 302.96C807.189 302.96 803.829 302.4 800.682 301.28C797.589 300.107 794.896 298.4 792.602 296.16C790.309 293.92 788.496 291.147 787.162 287.84C785.882 284.48 785.242 280.613 785.242 276.24C785.242 271.92 785.909 268.08 787.242 264.72C788.576 261.307 790.389 258.427 792.682 256.08C795.029 253.733 797.749 251.947 800.842 250.72C803.936 249.493 807.216 248.88 810.682 248.88C814.469 248.88 817.722 249.573 820.442 250.96C823.162 252.347 825.376 253.92 827.082 255.68L820.922 263.2C819.589 262.027 818.176 261.04 816.682 260.24C815.189 259.44 813.322 259.04 811.082 259.04C809.056 259.04 807.189 259.44 805.482 260.24C803.829 260.987 802.389 262.08 801.162 263.52C799.936 264.96 798.976 266.72 798.282 268.8C797.642 270.88 797.322 273.227 797.322 275.84C797.322 281.227 798.522 285.413 800.922 288.4C803.376 291.333 807.056 292.8 811.962 292.8C813.029 292.8 814.069 292.667 815.082 292.4C816.096 292.133 816.922 291.733 817.562 291.2V282.24H808.922V272.64H827.962V296.64C826.149 298.4 823.749 299.893 820.762 301.12C817.776 302.347 814.442 302.96 810.762 302.96ZM911.714 302.96C908.407 302.96 905.287 302.4 902.354 301.28C899.42 300.107 896.834 298.4 894.594 296.16C892.407 293.92 890.674 291.147 889.394 287.84C888.114 284.48 887.474 280.613 887.474 276.24C887.474 271.92 888.14 268.08 889.474 264.72C890.807 261.307 892.594 258.427 894.834 256.08C897.074 253.733 899.687 251.947 902.674 250.72C905.66 249.493 908.807 248.88 912.114 248.88C915.474 248.88 918.487 249.573 921.154 250.96C923.82 252.293 926.034 253.867 927.794 255.68L921.554 263.2C920.22 261.973 918.807 260.987 917.314 260.24C915.874 259.44 914.22 259.04 912.354 259.04C910.594 259.04 908.914 259.44 907.314 260.24C905.767 260.987 904.407 262.08 903.234 263.52C902.114 264.96 901.207 266.72 900.514 268.8C899.874 270.88 899.554 273.227 899.554 275.84C899.554 281.227 900.7 285.413 902.994 288.4C905.287 291.333 908.354 292.8 912.194 292.8C914.327 292.8 916.22 292.347 917.874 291.44C919.58 290.48 921.074 289.307 922.354 287.92L928.594 295.28C924.22 300.4 918.594 302.96 911.714 302.96ZM972.347 302.96C968.827 302.96 965.601 302.347 962.667 301.12C959.787 299.84 957.307 298.027 955.227 295.68C953.147 293.333 951.521 290.48 950.347 287.12C949.227 283.76 948.667 279.947 948.667 275.68C948.667 271.413 949.227 267.627 950.347 264.32C951.521 260.96 953.147 258.16 955.227 255.92C957.307 253.627 959.787 251.893 962.667 250.72C965.601 249.493 968.827 248.88 972.347 248.88C975.867 248.88 979.067 249.493 981.947 250.72C984.881 251.893 987.387 253.627 989.467 255.92C991.547 258.213 993.147 261.04 994.267 264.4C995.441 267.707 996.027 271.467 996.027 275.68C996.027 279.947 995.441 283.76 994.267 287.12C993.147 290.48 991.547 293.333 989.467 295.68C987.387 298.027 984.881 299.84 981.947 301.12C979.067 302.347 975.867 302.96 972.347 302.96ZM972.347 292.8C975.921 292.8 978.747 291.28 980.827 288.24C982.907 285.147 983.947 280.96 983.947 275.68C983.947 270.453 982.907 266.373 980.827 263.44C978.747 260.507 975.921 259.04 972.347 259.04C968.774 259.04 965.947 260.507 963.867 263.44C961.787 266.373 960.747 270.453 960.747 275.68C960.747 280.96 961.787 285.147 963.867 288.24C965.947 291.28 968.774 292.8 972.347 292.8ZM1023.43 302V249.84H1036.31L1044.71 273.04C1045.25 274.587 1045.75 276.187 1046.23 277.84C1046.71 279.44 1047.22 281.04 1047.75 282.64H1048.07C1048.61 281.04 1049.09 279.44 1049.51 277.84C1049.99 276.187 1050.5 274.587 1051.03 273.04L1059.27 249.84H1072.07V302H1061.35V282.88C1061.35 281.6 1061.41 280.187 1061.51 278.64C1061.62 277.093 1061.75 275.547 1061.91 274C1062.07 272.4 1062.23 270.853 1062.39 269.36C1062.55 267.813 1062.71 266.4 1062.87 265.12H1062.55L1058.31 277.52L1050.87 297.44H1044.39L1036.95 277.52L1032.79 265.12H1032.47C1032.63 266.4 1032.79 267.813 1032.95 269.36C1033.11 270.853 1033.27 272.4 1033.43 274C1033.59 275.547 1033.73 277.093 1033.83 278.64C1033.94 280.187 1033.99 281.6 1033.99 282.88V302H1023.43ZM1101.97 302V249.84H1119.89C1122.77 249.84 1125.47 250.133 1127.97 250.72C1130.48 251.253 1132.67 252.187 1134.53 253.52C1136.4 254.8 1137.87 256.533 1138.93 258.72C1140.05 260.853 1140.61 263.493 1140.61 266.64C1140.61 269.68 1140.05 272.32 1138.93 274.56C1137.87 276.8 1136.4 278.64 1134.53 280.08C1132.67 281.52 1130.51 282.587 1128.05 283.28C1125.6 283.973 1122.99 284.32 1120.21 284.32H1113.73V302H1101.97ZM1113.73 274.96H1119.49C1125.89 274.96 1129.09 272.187 1129.09 266.64C1129.09 263.92 1128.24 262 1126.53 260.88C1124.83 259.76 1122.37 259.2 1119.17 259.2H1113.73V274.96ZM1175.48 275.6L1174.2 280.4H1185.32L1184.12 275.6C1183.38 272.987 1182.66 270.213 1181.96 267.28C1181.27 264.347 1180.58 261.52 1179.88 258.8H1179.56C1178.92 261.573 1178.26 264.427 1177.56 267.36C1176.92 270.24 1176.23 272.987 1175.48 275.6ZM1156.6 302L1172.92 249.84H1187.08L1203.4 302H1190.92L1187.72 289.6H1171.8L1168.6 302H1156.6ZM1226.7 302V249.84H1238.78L1252.38 275.76L1257.5 287.28H1257.82C1257.56 284.507 1257.24 281.413 1256.86 278C1256.54 274.587 1256.38 271.333 1256.38 268.24V249.84H1267.58V302H1255.5L1241.9 276L1236.78 264.64H1236.46C1236.73 267.52 1237.02 270.613 1237.34 273.92C1237.72 277.227 1237.9 280.427 1237.9 283.52V302H1226.7ZM1306.47 302V283.44L1290.71 249.84H1303.35L1307.99 261.84C1308.73 263.813 1309.43 265.733 1310.07 267.6C1310.76 269.413 1311.48 271.333 1312.23 273.36H1312.55C1313.29 271.333 1314.01 269.413 1314.71 267.6C1315.45 265.733 1316.2 263.813 1316.95 261.84L1321.67 249.84H1333.99L1318.23 283.44V302H1306.47Z" fill="#5C524B" fill-opacity="0.45"/>
<path d="M29.9632 260.834C31.3743 257.012 35.6155 255.057 39.438 256.467L116.156 284.775C119.978 286.185 121.933 290.427 120.523 294.25C119.423 297.229 116.603 299.074 113.601 299.074C112.754 299.074 111.891 298.927 111.048 298.617L34.3303 270.309C30.5078 268.898 28.5529 264.657 29.9632 260.834Z" fill="#F9C649"/>
<path d="M127.774 296.926C129.184 293.102 133.427 291.148 137.249 292.558L140.498 293.756C144.32 295.167 146.275 299.409 144.865 303.23C143.766 306.21 140.945 308.056 137.943 308.056C137.096 308.056 136.233 307.908 135.39 307.598L132.141 306.4C128.32 304.989 126.364 300.748 127.774 296.926Z" fill="#F9C649"/>
<path d="M29.9631 230.775C31.3742 226.952 35.6154 224.999 39.4378 226.407L100.065 248.778C103.888 250.188 105.843 254.43 104.432 258.253C103.332 261.233 100.512 263.078 97.5108 263.078C96.6632 263.078 95.8003 262.93 94.9577 262.62L34.3301 240.249C30.5077 238.839 28.5527 234.597 29.9631 230.775Z" fill="#F9C649"/>
<path d="M29.9631 201.027C31.3742 197.205 35.6154 195.251 39.4378 196.66L100.065 219.031C103.888 220.441 105.843 224.683 104.432 228.506C103.332 231.485 100.512 233.331 97.5108 233.331C96.6632 233.331 95.8003 233.183 94.9577 232.873L34.3301 210.502C30.5077 209.092 28.5527 204.85 29.9631 201.027Z" fill="#F9C649"/>
<path d="M4.82281 66.0528L182.602 0.455656C184.25 -0.151885 186.061 -0.151885 187.709 0.455656L365.488 66.0528L365.489 66.0586C366.071 66.2741 366.631 66.559 367.152 66.9214C369.131 68.3014 370.311 70.5616 370.311 72.9737V284.026C370.311 287.115 368.386 289.878 365.488 290.947L187.709 356.544C186.881 356.85 186.016 357 185.156 357C184.288 357 183.423 356.842 182.605 356.54L182.602 356.544L4.82281 290.947C1.9247 289.878 9.15527e-05 287.116 9.15527e-05 284.026V72.9737C9.15527e-05 69.8839 1.9247 67.1225 4.82281 66.0528ZM192.532 339.039L355.558 278.885V83.5586L322.363 95.8078V185.187C322.363 188.276 320.438 191.039 317.54 192.108L237.872 221.505C237.043 221.811 236.179 221.961 235.319 221.961C233.83 221.961 232.355 221.51 231.1 220.636C229.121 219.257 227.942 216.996 227.942 214.584V130.647L192.534 143.712V339.039H192.532ZM242.694 125.203V203.998L307.609 180.045V101.25L242.694 125.203ZM293.676 90.6068L235.318 69.0731L176.959 90.6068L235.318 112.141L293.676 90.6068ZM185.156 130.708L214.087 120.033L153.095 97.527C150.197 96.4573 148.272 93.6959 148.272 90.6061C148.272 87.5163 150.197 84.7549 153.095 83.6852L232.764 54.2889C234.412 53.6813 236.222 53.6813 237.871 54.2889L315.066 82.7739L341.624 72.9737L185.156 15.2399L28.6869 72.9744L185.156 130.708ZM14.7532 278.885L177.778 339.038V143.712L14.7532 83.5586V278.885Z" fill="#F9C649"/>
</svg>
